<?xml version="1.0" standalone="no"?>
<!DOCTYPE svg PUBLIC "-//W3C//DTD SVG 20010904//EN" "http://www.w3.org/TR/2001/REC-SVG-20010904/DTD/svg10.dtd">

<svg version="1.0" xmlns="http://www.w3.org/2000/svg"
      width="204.000000pt"
      height="152.000000pt"
      viewBox="-100 100 400 10"
      preserveAspectRatio="xMidYMid meet">

      <g transform="translate(0.000000,192.000000) scale(0.100000,-0.100000)"
            fill="black" stroke="none">
            <path
                  d="M0 960 l0 -960 1020 0 1020 0 0 960 0 960 -1020 0 -1020 0 0 -960z
m533 262 c12 -12 42 -29 68 -36 73 -22 89 -34 110 -81 10 -23 26 -45 34 -49
12 -4 15 -30 15 -140 0 -125 -2 -136 -20 -146 -11 -6 -20 -20 -20 -31 0 -28
-60 -86 -96 -94 -53 -11 -94 -35 -105 -59 l-12 -25 -31 34 c-18 18 -45 36 -62
40 -75 16 -134 67 -134 116 0 9 -9 19 -20 22 -19 5 -20 14 -20 142 0 126 2
137 19 142 10 3 21 17 24 32 9 42 49 77 110 95 42 12 64 26 84 51 16 20 30 30
32 22 2 -6 13 -22 24 -35z m508 -51 c22 -17 23 -22 13 -50 -10 -24 -9 -33 2
-42 18 -15 18 -39 -2 -67 -13 -19 -24 -22 -80 -22 -60 0 -64 1 -50 16 22 21
22 136 1 158 -23 23 -19 26 39 26 38 0 61 -6 77 -19z m469 9 c0 -5 -4 -10 -9
-10 -5 0 -11 -34 -13 -76 -4 -85 -17 -104 -74 -104 -42 0 -64 23 -64 65 0 43
22 65 66 65 30 0 34 3 34 25 0 14 -4 25 -10 25 -5 0 -10 5 -10 10 0 6 18 10
40 10 22 0 40 -4 40 -10z m220 1 c0 -6 -4 -13 -10 -16 -5 -3 -10 -24 -10 -46
0 -33 3 -40 18 -37 11 2 18 14 20 36 3 26 7 32 28 32 13 0 24 -4 24 -10 0 -5
-4 -10 -10 -10 -19 0 -10 -33 15 -56 42 -39 26 -134 -22 -134 -12 0 -11 4 1
22 29 41 14 108 -24 108 -19 0 -50 -25 -50 -40 0 -5 7 -16 16 -24 14 -15 12
-16 -27 -16 -34 0 -40 3 -31 12 15 15 16 154 2 163 -21 13 -9 25 25 25 19 0
35 -4 35 -9z m-530 -81 c13 -13 20 -33 20 -61 0 -55 23 -47 31 11 6 47 29 70
68 70 24 -1 25 -1 6 -12 -46 -25 -62 -87 -27 -107 12 -8 -11 -10 -86 -10 -114
1 -132 9 -132 61 0 17 7 40 17 50 22 24 77 24 103 -2z m422 3 c13 -11 18 -30
18 -63 l0 -47 -54 -2 c-46 -1 -57 3 -70 21 -22 31 -20 64 4 88 24 24 77 26
102 3z m-539 -192 c7 -7 7 -17 -1 -33 -8 -18 -11 -19 -11 -6 -1 20 -30 38 -60
38 -57 0 -83 -93 -39 -139 18 -21 27 -23 71 -17 45 5 49 4 36 -9 -8 -8 -27
-16 -42 -17 -25 -2 -26 -4 -11 -15 23 -16 10 -43 -20 -43 -32 0 -45 20 -14 21
13 0 17 3 11 6 -7 2 -13 11 -13 18 0 8 -9 16 -20 20 -30 10 -60 54 -60 90 0
35 31 82 64 96 25 11 94 5 109 -10z m132 -65 c14 -10 19 -27 20 -67 l0 -54
-54 1 c-60 1 -81 18 -81 66 0 56 69 88 115 54z m105 5 c0 -6 -4 -13 -10 -16
-16 -10 -12 -71 6 -86 39 -32 74 52 38 92 -17 18 -16 19 24 19 40 0 54 -11 32
-25 -5 -3 -10 -22 -10 -41 0 -21 -8 -42 -20 -54 -21 -21 -20 -59 3 -87 7 -10
-1 -13 -34 -13 -33 0 -40 3 -31 12 23 23 14 66 -15 80 -23 11 -29 21 -31 53
-2 22 -11 48 -19 58 -15 16 -13 17 25 17 23 0 42 -4 42 -9z" />
            <path
                  d="M475 1184 c-11 -8 -44 -22 -72 -30 -62 -18 -93 -52 -93 -100 0 -27
-4 -34 -20 -34 -19 0 -20 -7 -20 -110 0 -103 1 -110 20 -110 15 0 20 -7 20
-29 0 -45 41 -87 99 -101 27 -6 59 -21 71 -32 21 -20 21 -20 43 0 12 11 48 27
79 36 64 18 88 44 88 93 0 26 4 33 20 33 19 0 20 7 20 109 0 100 -2 109 -20
114 -14 4 -20 14 -20 35 0 42 -34 80 -83 93 -23 6 -57 19 -75 30 -39 22 -32
22 -57 3z m81 -176 c8 -15 14 -38 14 -52 0 -23 3 -24 48 -23 l47 2 -1 -43 c-1
-52 -27 -90 -77 -115 -42 -21 -57 -16 -57 18 0 25 44 85 63 85 6 0 1 -10 -10
-22 -54 -59 -28 -94 28 -39 21 22 29 39 29 66 0 33 -2 36 -22 30 -59 -18 -108
-76 -108 -127 0 -16 -4 -28 -10 -28 -5 0 -10 7 -10 15 0 8 -7 33 -16 55 -17
43 -53 74 -97 85 -24 6 -27 4 -27 -19 0 -51 42 -106 80 -106 16 0 4 49 -18 74
-16 18 -16 18 5 7 29 -15 43 -42 43 -81 0 -28 -2 -30 -27 -24 -73 18 -108 70
-104 153 1 21 5 23 39 19 20 -3 45 -8 55 -12 15 -7 17 -2 17 33 0 31 7 48 31
76 31 35 32 35 51 18 11 -10 26 -30 34 -45z" />
            <path
                  d="M485 1016 c-26 -39 -29 -89 -10 -130 l18 -38 23 29 c32 39 39 84 20
121 -22 43 -33 46 -51 18z" />
            <path
                  d="M977 1164 c-4 -4 -7 -20 -7 -36 0 -32 28 -39 51 -12 21 25 -21 71
-44 48z" />
            <path
                  d="M970 1046 c0 -39 11 -50 41 -41 16 5 19 14 17 38 -2 27 -8 33 -30 35
-26 3 -28 1 -28 -32z" />
            <path
                  d="M1396 1094 c-32 -31 -15 -88 25 -82 20 2 25 10 27 40 2 28 -1 39 -17
47 -15 8 -23 7 -35 -5z" />
            <path
                  d="M1116 1075 c-11 -43 2 -67 32 -63 24 3 27 7 27 43 0 36 -3 40 -26 43
-22 3 -28 -2 -33 -23z" />
            <path
                  d="M1544 1086 c-3 -8 -4 -27 -2 -43 4 -35 41 -45 58 -14 17 32 2 71 -26
71 -14 0 -27 -6 -30 -14z" />
            <path
                  d="M1140 820 c-14 -27 -6 -66 16 -74 27 -10 45 13 42 53 -2 28 -8 37
-25 39 -14 2 -26 -4 -33 -18z" />
      </g>
</svg>